{
  "accessors": [
    {
      "bufferView": 2,
      "componentType": 5126,
      "count": 65533,
      "max": [
        137.052490234375,
        -54.952014923095703,
        65.738319396972656
      ],
      "min": [
        -53.439777374267578,
        -74.264396667480469,
        -81.199172973632812
      ],
      "type": "VEC3"
    },
    {
      "bufferView": 2,
      "byteOffset": 786396,
      "componentType": 5126,
      "count": 65533,
      "max": [
        0.99984776973724365,
        0.9997221827507019,
        0.99998301267623901
      ],
      "min": [
        -0.99999582767486572,
        -0.99999994039535522,
        -0.99978381395339966
      ],
      "type": "VEC3"
    },
    {
      "bufferView": 3,
      "componentType": 5126,
      "count": 65533,
      "max": [
        0.99607843160629272,
        0.99607843160629272,
        0.99607843160629272,
        1
      ],
      "min": [
        0.011764706112444401,
        0.047058824449777603,
        0.047058824449777603,
        1
      ],
      "type": "VEC4"
    },
    {
      "bufferView": 1,
      "componentType": 5126,
      "count": 65533,
      "max": [
        1,
        1
      ],
      "min": [
        0.0016599999507889152,
        0.0015030000358819962
      ],
      "type": "VEC2"
    },
    {
      "bufferView": 0,
      "componentType": 5125,
      "count": 365310,
      "max": [
        65532
      ],
      "min": [
        0
      ],
      "type": "SCALAR"
    },
    {
      "bufferView": 2,
      "byteOffset": 1572792,
      "componentType": 5126,
      "count": 55709,
      "max": [
        139.03050231933594,
        -57.372745513916016,
        71.613319396972656
      ],
      "min": [
        2.1334199905395508,
        -75.787216186523438,
        -105.8609619140625
      ],
      "type": "VEC3"
    },
    {
      "bufferView": 2,
      "byteOffset": 2241300,
      "componentType": 5126,
      "count": 55709,
      "max": [
        0.99994713068008423,
        0.99984192848205566,
        0.99996292591094971
      ],
      "min": [
        -0.99999892711639404,
        -0.99999994039535522,
        -0.99986386299133301
      ],
      "type": "VEC3"
    },
    {
      "bufferView": 3,
      "byteOffset": 1048528,
      "componentType": 5126,
      "count": 55709,
      "max": [
        0.99607843160629272,
        0.99607843160629272,
        0.99607843160629272,
        1
      ],
      "min": [
        0.015686275437474251,
        0.039215687662363052,
        0.023529412224888802,
        1
      ],
      "type": "VEC4"
    },
    {
      "bufferView": 1,
      "byteOffset": 524264,
      "componentType": 5126,
      "count": 55709,
      "max": [
        1,
        1
      ],
      "min": [
        0,
        0.0005080000264570117
      ],
      "type": "VEC2"
    },
    {
      "bufferView": 0,
      "byteOffset": 1461240,
      "componentType": 5125,
      "count": 293298,
      "max": [
        55708
      ],
      "min": [
        0
      ],
      "type": "SCALAR"
    },
    {
      "bufferView": 2,
      "byteOffset": 2909808,
      "componentType": 5126,
      "count": 65532,
      "max": [
        137.70945739746094,
        -56.179286956787109,
        70.00665283203125
      ],
      "min": [
        -53.346042633056641,
        -73.609970092773438,
        -88.921562194824219
      ],
      "type": "VEC3"
    },
    {
      "bufferView": 2,
      "byteOffset": 3696192,
      "componentType": 5126,
      "count": 65532,
      "max": [
        0.99997973442077637,
        0.99972867965698242,
        0.9999653697013855
      ],
      "min": [
        -0.99997234344482422,
        -0.99999910593032837,
        -0.99999260902404785
      ],
      "type": "VEC3"
    },
    {
      "bufferView": 3,
      "byteOffset": 1939872,
      "componentType": 5126,
      "count": 65532,
      "max": [
        1,
        1,
        0.99607843160629272,
        1
      ],
      "min": [
        0.019607843831181526,
        0.039215687662363052,
        0.035294119268655777,
        1
      ],
      "type": "VEC4"
    },
    {
      "bufferView": 1,
      "byteOffset": 969936,
      "componentType": 5126,
      "count": 65532,
      "max": [
        1,
        0.99838697910308838
      ],
      "min": [
        0,
        0
      ],
      "type": "VEC2"
    },
    {
      "bufferView": 0,
      "byteOffset": 2634432,
      "componentType": 5125,
      "count": 353466,
      "max": [
        65531
      ],
      "min": [
        0
      ],
      "type": "SCALAR"
    },
    {
      "bufferView": 2,
      "byteOffset": 4482576,
      "componentType": 5126,
      "count": 41885,
      "max": [
        146.22544860839844,
        -56.195697784423828,
        69.712715148925781
      ],
      "min": [
        57.996311187744141,
        -74.433570861816406,
        -89.696830749511719
      ],
      "type": "VEC3"
    },
    {
      "bufferView": 2,
      "byteOffset": 4985196,
      "componentType": 5126,
      "count": 41885,
      "max": [
        0.99999016523361206,
        0.99999457597732544,
        0.9998815655708313
      ],
      "min": [
        -0.99983346462249756,
        -0.99999862909317017,
        -0.99999260902404785
      ],
      "type": "VEC3"
    },
    {
      "bufferView": 3,
      "byteOffset": 2988384,
      "componentType": 5126,
      "count": 41885,
      "max": [
        1,
        0.99607843160629272,
        0.99607843160629272,
        1
      ],
      "min": [
        0.019607843831181526,
        0.031372550874948502,
        0.031372550874948502,
        1
      ],
      "type": "VEC4"
    },
    {
      "bufferView": 1,
      "byteOffset": 1494192,
      "componentType": 5126,
      "count": 41885,
      "max": [
        0.99985498189926147,
        0.99950897693634033
      ],
      "min": [
        0.0083579998463392258,
        0.00022000000171829015
      ],
      "type": "VEC2"
    },
    {
      "bufferView": 0,
      "byteOffset": 4048296,
      "componentType": 5125,
      "count": 221091,
      "max": [
        41884
      ],
      "min": [
        0
      ],
      "type": "SCALAR"
    },
    {
      "bufferView": 2,
      "byteOffset": 5487816,
      "componentType": 5126,
      "count": 65532,
      "max": [
        141.08470153808594,
        -57.693756103515625,
        65.947395324707031
      ],
      "min": [
        -54.6593017578125,
        -76.337600708007812,
        -105.31331634521484
      ],
      "type": "VEC3"
    },
    {
      "bufferView": 2,
      "byteOffset": 6274200,
      "componentType": 5126,
      "count": 65532,
      "max": [
        0.99999243021011353,
        0.99999213218688965,
        0.99988341331481934
      ],
      "min": [
        -0.99997490644454956,
        -0.99999994039535522,
        -0.99997460842132568
      ],
      "type": "VEC3"
    },
    {
      "bufferView": 3,
      "byteOffset": 3658544,
      "componentType": 5126,
      "count": 65532,
      "max": [
        0.99607843160629272,
        0.99607843160629272,
        0.99607843160629272,
        1
      ],
      "min": [
        0.019607843831181526,
        0.023529412224888802,
        0.031372550874948502,
        1
      ],
      "type": "VEC4"
    },
    {
      "bufferView": 1,
      "byteOffset": 1829272,
      "componentType": 5126,
      "count": 65532,
      "max": [
        0.99541997909545898,
        0.99678301811218262
      ],
      "min": [
        0,
        0.00063299998873844743
      ],
      "type": "VEC2"
    },
    {
      "bufferView": 0,
      "byteOffset": 4932660,
      "componentType": 5125,
      "count": 343122,
      "max": [
        65531
      ],
      "min": [
        0
      ],
      "type": "SCALAR"
    },
    {
      "bufferView": 2,
      "byteOffset": 7060584,
      "componentType": 5126,
      "count": 47474,
      "max": [
        142.51954650878906,
        -58.619033813476562,
        68.319038391113281
      ],
      "min": [
        62.265018463134766,
        -73.434982299804688,
        -72.975624084472656
      ],
      "type": "VEC3"
    },
    {
      "bufferView": 2,
      "byteOffset": 7630272,
      "componentType": 5126,
      "count": 47474,
      "max": [
        0.99999350309371948,
        0.99997073411941528,
        0.99994540214538574
      ],
      "min": [
        -0.99997204542160034,
        -0.99999988079071045,
        -0.99988353252410889
      ],
      "type": "VEC3"
    },
    {
      "bufferView": 3,
      "byteOffset": 4707056,
      "componentType": 5126,
      "count": 47474,
      "max": [
        0.99607843160629272,
        0.99607843160629272,
        0.99607843160629272,
        1
      ],
      "min": [
        0.011764706112444401,
        0.031372550874948502,
        0.023529412224888802,
        1
      ],
      "type": "VEC4"
    },
    {
      "bufferView": 1,
      "byteOffset": 2353528,
      "componentType": 5126,
      "count": 47474,
      "max": [
        0.9628480076789856,
        1
      ],
      "min": [
        0.0042619998566806316,
        0.00012599999899975955
      ],
      "type": "VEC2"
    },
    {
      "bufferView": 0,
      "byteOffset": 6305148,
      "componentType": 5125,
      "count": 235149,
      "max": [
        47473
      ],
      "min": [
        0
      ],
      "type": "SCALAR"
    },
    {
      "bufferView": 2,
      "byteOffset": 8199960,
      "componentType": 5126,
      "count": 65532,
      "max": [
        133.03129577636719,
        -58.254631042480469,
        64.725212097167969
      ],
      "min": [
        -52.60125732421875,
        -76.875938415527344,
        -104.30359649658203
      ],
      "type": "VEC3"
    },
    {
      "bufferView": 2,
      "byteOffset": 8986344,
      "componentType": 5126,
      "count": 65532,
      "max": [
        0.99995934963226318,
        0.99986487627029419,
        0.99995177984237671
      ],
      "min": [
        -0.99999874830245972,
        -1,
        -0.99998229742050171
      ],
      "type": "VEC3"
    },
    {
      "bufferView": 3,
      "byteOffset": 5466640,
      "componentType": 5126,
      "count": 65532,
      "max": [
        1,
        1,
        1,
        1
      ],
      "min": [
        0.023529412224888802,
        0.050980392843484879,
        0.043137256056070328,
        1
      ],
      "type": "VEC4"
    },
    {
      "bufferView": 1,
      "byteOffset": 2733320,
      "componentType": 5126,
      "count": 65532,
      "max": [
        1,
        0.99947100877761841
      ],
      "min": [
        0,
        0
      ],
      "type": "VEC2"
    },
    {
      "bufferView": 0,
      "byteOffset": 7245744,
      "componentType": 5125,
      "count": 352116,
      "max": [
        65531
      ],
      "min": [
        0
      ],
      "type": "SCALAR"
    },
    {
      "bufferView": 2,
      "byteOffset": 9772728,
      "componentType": 5126,
      "count": 49209,
      "max": [
        140.44772338867188,
        -57.927322387695312,
        60.014980316162109
      ],
      "min": [
        68.983329772949219,
        -78.18731689453125,
        -107.07297515869141
      ],
      "type": "VEC3"
    },
    {
      "bufferView": 2,
      "byteOffset": 10363236,
      "componentType": 5126,
      "count": 49209,
      "max": [
        0.99990755319595337,
        0.99990051984786987,
        0.99986481666564941
      ],
      "min": [
        -0.99999874830245972,
        -1,
        -0.9999922513961792
      ],
      "type": "VEC3"
    },
    {
      "bufferView": 3,
      "byteOffset": 6515152,
      "componentType": 5126,
      "count": 49209,
      "max": [
        1,
        1,
        0.99607843160629272,
        1
      ],
      "min": [
        0.019607843831181526,
        0.035294119268655777,
        0.047058824449777603,
        1
      ],
      "type": "VEC4"
    },
    {
      "bufferView": 1,
      "byteOffset": 3257576,
      "componentType": 5126,
      "count": 49209,
      "max": [
        0.99977898597717285,
        0.99817800521850586
      ],
      "min": [
        0.00024199999461416155,
        0.0019859999883919954
      ],
      "type": "VEC2"
    },
    {
      "bufferView": 0,
      "byteOffset": 8654208,
      "componentType": 5125,
      "count": 256578,
      "max": [
        49208
      ],
      "min": [
        0
      ],
      "type": "SCALAR"
    },
    {
      "bufferView": 2,
      "byteOffset": 10953744,
      "componentType": 5126,
      "count": 65532,
      "max": [
        137.62310791015625,
        -57.819217681884766,
        65.413131713867188
      ],
      "min": [
        -53.64813232421875,
        -77.005340576171875,
        -86.194503784179688
      ],
      "type": "VEC3"
    },
    {
      "bufferView": 2,
      "byteOffset": 11740128,
      "componentType": 5126,
      "count": 65532,
      "max": [
        0.99982482194900513,
        0.99995368719100952,
        0.99997323751449585
      ],
      "min": [
        -0.99996089935302734,
        -0.99999988079071045,
        -0.99999094009399414
      ],
      "type": "VEC3"
    },
    {
      "bufferView": 3,
      "byteOffset": 7302496,
      "componentType": 5126,
      "count": 65532,
      "max": [
        0.99607843160629272,
        0.99607843160629272,
        0.99607843160629272,
        1
      ],
      "min": [
        0.023529412224888802,
        0.047058824449777603,
        0.043137256056070328,
        1
      ],
      "type": "VEC4"
    },
    {
      "bufferView": 1,
      "byteOffset": 3651248,
      "componentType": 5126,
      "count": 65532,
      "max": [
        0.9952930212020874,
        1
      ],
      "min": [
        0,
        0
      ],
      "type": "VEC2"
    },
    {
      "bufferView": 0,
      "byteOffset": 9680520,
      "componentType": 5125,
      "count": 359985,
      "max": [
        65531
      ],
      "min": [
        0
      ],
      "type": "SCALAR"
    },
    {
      "bufferView": 2,
      "byteOffset": 12526512,
      "componentType": 5126,
      "count": 65532,
      "max": [
        149.40054321289062,
        -56.798442840576172,
        70.77593994140625
      ],
      "min": [
        30.794071197509766,
        -76.818206787109375,
        -78.654777526855469
      ],
      "type": "VEC3"
    },
    {
      "bufferView": 2,
      "byteOffset": 13312896,
      "componentType": 5126,
      "count": 65532,
      "max": [
        0.99999874830245972,
        0.99979227781295776,
        0.99994885921478271
      ],
      "min": [
        -0.99997884035110474,
        -0.99999982118606567,
        -0.99998259544372559
      ],
      "type": "VEC3"
    },
    {
      "bufferView": 3,
      "byteOffset": 8351008,
      "componentType": 5126,
      "count": 65532,
      "max": [
        0.99607843160629272,
        0.99607843160629272,
        0.99607843160629272,
        1
      ],
      "min": [
        0.0078431377187371254,
        0.031372550874948502,
        0.035294119268655777,
        1
      ],
      "type": "VEC4"
    },
    {
      "bufferView": 1,
      "byteOffset": 4175504,
      "componentType": 5126,
      "count": 65532,
      "max": [
        0.9949759840965271,
        1
      ],
      "min": [
        0.0010130000300705433,
        0.00051799998618662357
      ],
      "type": "VEC2"
    },
    {
      "bufferView": 0,
      "byteOffset": 11120460,
      "componentType": 5125,
      "count": 350238,
      "max": [
        65531
      ],
      "min": [
        0
      ],
      "type": "SCALAR"
    },
    {
      "bufferView": 2,
      "byteOffset": 14099280,
      "componentType": 5126,
      "count": 265,
      "max": [
        156.15058898925781,
        -59.279071807861328,
        -66.52679443359375
      ],
      "min": [
        145.00997924804688,
        -61.801845550537109,
        -116.50486755371094
      ],
      "type": "VEC3"
    },
    {
      "bufferView": 2,
      "byteOffset": 14102460,
      "componentType": 5126,
      "count": 265,
      "max": [
        0.99964481592178345,
        0.99949049949645996,
        0.99476140737533569
      ],
      "min": [
        -0.99996918439865112,
        -0.99998718500137329,
        -0.97871118783950806
      ],
      "type": "VEC3"
    },
    {
      "bufferView": 3,
      "byteOffset": 9399520,
      "componentType": 5126,
      "count": 265,
      "max": [
        0.81960785388946533,
        0.82745099067687988,
        0.80784314870834351,
        1
      ],
      "min": [
        0.19215686619281769,
        0.23529411852359772,
        0.20000000298023224,
        1
      ],
      "type": "VEC4"
    },
    {
      "bufferView": 1,
      "byteOffset": 4699760,
      "componentType": 5126,
      "count": 265,
      "max": [
        0.98192298412322998,
        0.97994399070739746
      ],
      "min": [
        0.47766000032424927,
        0.74003100395202637
      ],
      "type": "VEC2"
    },
    {
      "bufferView": 0,
      "byteOffset": 12521412,
      "componentType": 5125,
      "count": 711,
      "max": [
        264
      ],
      "min": [
        0
      ],
      "type": "SCALAR"
    },
    {
      "bufferView": 2,
      "byteOffset": 14105640,
      "componentType": 5126,
      "count": 65532,
      "max": [
        142.32469177246094,
        -57.490058898925781,
        71.496002197265625
      ],
      "min": [
        -53.020732879638672,
        -76.875938415527344,
        -86.115318298339844
      ],
      "type": "VEC3"
    },
    {
      "bufferView": 2,
      "byteOffset": 14892024,
      "componentType": 5126,
      "count": 65532,
      "max": [
        0.99999499320983887,
        0.99986684322357178,
        0.99998879432678223
      ],
      "min": [
        -0.99999397993087769,
        -0.99999982118606567,
        -0.99998342990875244
      ],
      "type": "VEC3"
    },
    {
      "bufferView": 3,
      "byteOffset": 9403760,
      "componentType": 5126,
      "count": 65532,
      "max": [
        1,
        1,
        1,
        1
      ],
      "min": [
        0.019607843831181526,
        0.031372550874948502,
        0.027450980618596077,
        1
      ],
      "type": "VEC4"
    },
    {
      "bufferView": 1,
      "byteOffset": 4701880,
      "componentType": 5126,
      "count": 65532,
      "max": [
        1,
        1
      ],
      "min": [
        0,
        0.0012789999600499868
      ],
      "type": "VEC2"
    },
    {
      "bufferView": 0,
      "byteOffset": 12524256,
      "componentType": 5125,
      "count": 336447,
      "max": [
        65531
      ],
      "min": [
        0
      ],
      "type": "SCALAR"
    },
    {
      "bufferView": 2,
      "byteOffset": 15678408,
      "componentType": 5126,
      "count": 65532,
      "max": [
        138.57928466796875,
        -56.708580017089844,
        48.479995727539062
      ],
      "min": [
        76.121421813964844,
        -78.1602783203125,
        -105.02252960205078
      ],
      "type": "VEC3"
    },
    {
      "bufferView": 2,
      "byteOffset": 16464792,
      "componentType": 5126,
      "count": 65532,
      "max": [
        0.99996328353881836,
        0.99921882152557373,
        0.99999344348907471
      ],
      "min": [
        -0.99997693300247192,
        -0.99999994039535522,
        -0.99998342990875244
      ],
      "type": "VEC3"
    },
    {
      "bufferView": 3,
      "byteOffset": 10452272,
      "componentType": 5126,
      "count": 65532,
      "max": [
        1,
        1,
        1,
        1
      ],
      "min": [
        0.011764706112444401,
        0.035294119268655777,
        0.039215687662363052,
        1
      ],
      "type": "VEC4"
    },
    {
      "bufferView": 1,
      "byteOffset": 5226136,
      "componentType": 5126,
      "count": 65532,
      "max": [
        0.99865299463272095,
        0.99897897243499756
      ],
      "min": [
        0,
        0
      ],
      "type": "VEC2"
    },
    {
      "bufferView": 0,
      "byteOffset": 13870044,
      "componentType": 5125,
      "count": 344310,
      "max": [
        65531
      ],
      "min": [
        0
      ],
      "type": "SCALAR"
    },
    {
      "bufferView": 2,
      "byteOffset": 17251176,
      "componentType": 5126,
      "count": 7429,
      "max": [
        156.15834045410156,
        -59.423866271972656,
        -31.546344757080078
      ],
      "min": [
        131.11190795898438,
        -74.691070556640625,
        -116.23416137695312
      ],
      "type": "VEC3"
    },
    {
      "bufferView": 2,
      "byteOffset": 17340324,
      "componentType": 5126,
      "count": 7429,
      "max": [
        0.99981564283370972,
        0.99938195943832397,
        0.99991810321807861
      ],
      "min": [
        -0.99991875886917114,
        -0.99998843669891357,
        -0.99983656406402588
      ],
      "type": "VEC3"
    },
    {
      "bufferView": 3,
      "byteOffset": 11500784,
      "componentType": 5126,
      "count": 7429,
      "max": [
        1,
        1,
        1,
        1
      ],
      "min": [
        0.019607843831181526,
        0.039215687662363052,
        0.047058824449777603,
        1
      ],
      "type": "VEC4"
    },
    {
      "bufferView": 1,
      "byteOffset": 5750392,
      "componentType": 5126,
      "count": 7429,
      "max": [
        0.99128597974777222,
        0.99940299987792969
      ],
      "min": [
        0.013148000463843346,
        0.00080300000263378024
      ],
      "type": "VEC2"
    },
    {
      "bufferView": 0,
      "byteOffset": 15247284,
      "componentType": 5125,
      "count": 36063,
      "max": [
        7428
      ],
      "min": [
        0
      ],
      "type": "SCALAR"
    },
    {
      "bufferView": 2,
      "byteOffset": 17429472,
      "componentType": 5126,
      "count": 65532,
      "max": [
        140.84111022949219,
        -57.715011596679688,
        65.273178100585938
      ],
      "min": [
        -53.343250274658203,
        -77.891151428222656,
        -81.705406188964844
      ],
      "type": "VEC3"
    },
    {
      "bufferView": 2,
      "byteOffset": 18215856,
      "componentType": 5126,
      "count": 65532,
      "max": [
        0.99994188547134399,
        0.99984061717987061,
        0.99997282028198242
      ],
      "min": [
        -0.99997103214263916,
        -1,
        -0.99977082014083862
      ],
      "type": "VEC3"
    },
    {
      "bufferView": 3,
      "byteOffset": 11619648,
      "componentType": 5126,
      "count": 65532,
      "max": [
        0.99607843160629272,
        0.99607843160629272,
        0.99607843160629272,
        1
      ],
      "min": [
        0.027450980618596077,
        0.047058824449777603,
        0.027450980618596077,
        1
      ],
      "type": "VEC4"
    },
    {
      "bufferView": 1,
      "byteOffset": 5809824,
      "componentType": 5126,
      "count": 65532,
      "max": [
        1,
        0.98983597755432129
      ],
      "min": [
        0.0027799999807029963,
        0
      ],
      "type": "VEC2"
    },
    {
      "bufferView": 0,
      "byteOffset": 15391536,
      "componentType": 5125,
      "count": 347160,
      "max": [
        65531
      ],
      "min": [
        0
      ],
      "type": "SCALAR"
    },
    {
      "bufferView": 2,
      "byteOffset": 19002240,
      "componentType": 5126,
      "count": 49334,
      "max": [
        158.52798461914062,
        -58.282730102539062,
        65.124557495117188
      ],
      "min": [
        61.240840911865234,
        -76.628669738769531,
        -105.09688568115234
      ],
      "type": "VEC3"
    },
    {
      "bufferView": 2,
      "byteOffset": 19594248,
      "componentType": 5126,
      "count": 49334,
      "max": [
        0.9999203085899353,
        0.99996030330657959,
        0.99999427795410156
      ],
      "min": [
        -0.9998510479927063,
        -0.99999934434890747,
        -0.99995571374893188
      ],
      "type": "VEC3"
    },
    {
      "bufferView": 3,
      "byteOffset": 12668160,
      "componentType": 5126,
      "count": 49334,
      "max": [
        0.99215686321258545,
        0.99607843160629272,
        0.99607843160629272,
        1
      ],
      "min": [
        0.027450980618596077,
        0.031372550874948502,
        0.027450980618596077,
        1
      ],
      "type": "VEC4"
    },
    {
      "bufferView": 1,
      "byteOffset": 6334080,
      "componentType": 5126,
      "count": 49334,
      "max": [
        1,
        0.98707002401351929
      ],
      "min": [
        0.00035899999784305692,
        0
      ],
      "type": "VEC2"
    },
    {
      "bufferView": 0,
      "byteOffset": 16780176,
      "componentType": 5125,
      "count": 258936,
      "max": [
        49333
      ],
      "min": [
        0
      ],
      "type": "SCALAR"
    }
  ],
  "asset": {
    "extras": {
      "author": "Jena - Lichtstadt (https://sketchfab.com/jena-lichtstadt)",
      "license": "CC0-1.0 (http://creativecommons.org/publicdomain/zero/1.0/)",
      "source": "https://sketchfab.com/3d-models/inselplatz-jena-380b759cfc5e4727a2bb4957803eec48",
      "title": "Inselplatz Jena"
    },
    "generator": "Sketchfab-7.80.0",
    "version": "2.0"
  },
  "bufferViews": [
    {
      "buffer": 0,
      "byteLength": 17815920,
      "byteOffset": 0,
      "name": "floatBufferViews",
      "target": 34963
    },
    {
      "buffer": 0,
      "byteLength": 6728752,
      "byteOffset": 17815920,
      "byteStride": 8,
      "name": "floatBufferViews",
      "target": 34962
    },
    {
      "buffer": 0,
      "byteLength": 20186256,
      "byteOffset": 24544672,
      "byteStride": 12,
      "name": "floatBufferViews",
      "target": 34962
    },
    {
      "buffer": 0,
      "byteLength": 13457504,
      "byteOffset": 44730928,
      "byteStride": 16,
      "name": "floatBufferViews",
      "target": 34962
    }
  ],
  "buffers": [
    {
      "byteLength": 58188432,
      "uri": "scene.bin"
    }
  ],
  "images": [
    {
      "uri": "textures/Insel_baseColor.jpeg"
    },
    {
      "uri": "textures/Insel1_baseColor.jpeg"
    },
    {
      "uri": "textures/Insel2_baseColor.jpeg"
    },
    {
      "uri": "textures/Insel3_baseColor.jpeg"
    },
    {
      "uri": "textures/Insel4_baseColor.jpeg"
    },
    {
      "uri": "textures/Insel5_baseColor.jpeg"
    },
    {
      "uri": "textures/Insel6_baseColor.jpeg"
    }
  ],
  "materials": [
    {
      "doubleSided": true,
      "emissiveFactor": [
        0,
        0,
        0
      ],
      "name": "Insel",
      "pbrMetallicRoughness": {
        "baseColorFactor": [
          1,
          1,
          1,
          1
        ],
        "baseColorTexture": {
          "index": 0,
          "texCoord": 0
        },
        "metallicFactor": 0,
        "roughnessFactor": 1
      }
    },
    {
      "doubleSided": true,
      "emissiveFactor": [
        0,
        0,
        0
      ],
      "name": "Insel1",
      "pbrMetallicRoughness": {
        "baseColorFactor": [
          1,
          1,
          1,
          1
        ],
        "baseColorTexture": {
          "index": 1,
          "texCoord": 0
        },
        "metallicFactor": 0,
        "roughnessFactor": 1
      }
    },
    {
      "doubleSided": true,
      "emissiveFactor": [
        0,
        0,
        0
      ],
      "name": "Insel2",
      "pbrMetallicRoughness": {
        "baseColorFactor": [
          1,
          1,
          1,
          1
        ],
        "baseColorTexture": {
          "index": 2,
          "texCoord": 0
        },
        "metallicFactor": 0,
        "roughnessFactor": 1
      }
    },
    {
      "doubleSided": true,
      "emissiveFactor": [
        0,
        0,
        0
      ],
      "name": "Insel3",
      "pbrMetallicRoughness": {
        "baseColorFactor": [
          1,
          1,
          1,
          1
        ],
        "baseColorTexture": {
          "index": 3,
          "texCoord": 0
        },
        "metallicFactor": 0,
        "roughnessFactor": 1
      }
    },
    {
      "doubleSided": true,
      "emissiveFactor": [
        0,
        0,
        0
      ],
      "name": "Insel4",
      "pbrMetallicRoughness": {
        "baseColorFactor": [
          1,
          1,
          1,
          1
        ],
        "baseColorTexture": {
          "index": 4,
          "texCoord": 0
        },
        "metallicFactor": 0,
        "roughnessFactor": 1
      }
    },
    {
      "doubleSided": true,
      "emissiveFactor": [
        0,
        0,
        0
      ],
      "name": "Insel5",
      "pbrMetallicRoughness": {
        "baseColorFactor": [
          1,
          1,
          1,
          1
        ],
        "baseColorTexture": {
          "index": 5,
          "texCoord": 0
        },
        "metallicFactor": 0,
        "roughnessFactor": 1
      }
    },
    {
      "doubleSided": true,
      "emissiveFactor": [
        0,
        0,
        0
      ],
      "name": "Insel6",
      "pbrMetallicRoughness": {
        "baseColorFactor": [
          1,
          1,
          1,
          1
        ],
        "baseColorTexture": {
          "index": 6,
          "texCoord": 0
        },
        "metallicFactor": 0,
        "roughnessFactor": 1
      }
    }
  ],
  "meshes": [
    {
      "primitives": [
        {
          "attributes": {
            "COLOR_0": 2,
            "NORMAL": 1,
            "POSITION": 0,
            "TEXCOORD_0": 3
          },
          "indices": 4,
          "material": 0,
          "mode": 4
        }
      ]
    },
    {
      "primitives": [
        {
          "attributes": {
            "COLOR_0": 7,
            "NORMAL": 6,
            "POSITION": 5,
            "TEXCOORD_0": 8
          },
          "indices": 9,
          "material": 0,
          "mode": 4
        }
      ]
    },
    {
      "primitives": [
        {
          "attributes": {
            "COLOR_0": 12,
            "NORMAL": 11,
            "POSITION": 10,
            "TEXCOORD_0": 13
          },
          "indices": 14,
          "material": 1,
          "mode": 4
        }
      ]
    },
    {
      "primitives": [
        {
          "attributes": {
            "COLOR_0": 17,
            "NORMAL": 16,
            "POSITION": 15,
            "TEXCOORD_0": 18
          },
          "indices": 19,
          "material": 1,
          "mode": 4
        }
      ]
    },
    {
      "primitives": [
        {
          "attributes": {
            "COLOR_0": 22,
            "NORMAL": 21,
            "POSITION": 20,
            "TEXCOORD_0": 23
          },
          "indices": 24,
          "material": 2,
          "mode": 4
        }
      ]
    },
    {
      "primitives": [
        {
          "attributes": {
            "COLOR_0": 27,
            "NORMAL": 26,
            "POSITION": 25,
            "TEXCOORD_0": 28
          },
          "indices": 29,
          "material": 2,
          "mode": 4
        }
      ]
    },
    {
      "primitives": [
        {
          "attributes": {
            "COLOR_0": 32,
            "NORMAL": 31,
            "POSITION": 30,
            "TEXCOORD_0": 33
          },
          "indices": 34,
          "material": 3,
          "mode": 4
        }
      ]
    },
    {
      "primitives": [
        {
          "attributes": {
            "COLOR_0": 37,
            "NORMAL": 36,
            "POSITION": 35,
            "TEXCOORD_0": 38
          },
          "indices": 39,
          "material": 3,
          "mode": 4
        }
      ]
    },
    {
      "primitives": [
        {
          "attributes": {
            "COLOR_0": 42,
            "NORMAL": 41,
            "POSITION": 40,
            "TEXCOORD_0": 43
          },
          "indices": 44,
          "material": 4,
          "mode": 4
        }
      ]
    },
    {
      "primitives": [
        {
          "attributes": {
            "COLOR_0": 47,
            "NORMAL": 46,
            "POSITION": 45,
            "TEXCOORD_0": 48
          },
          "indices": 49,
          "material": 4,
          "mode": 4
        }
      ]
    },
    {
      "primitives": [
        {
          "attributes": {
            "COLOR_0": 52,
            "NORMAL": 51,
            "POSITION": 50,
            "TEXCOORD_0": 53
          },
          "indices": 54,
          "material": 4,
          "mode": 4
        }
      ]
    },
    {
      "primitives": [
        {
          "attributes": {
            "COLOR_0": 57,
            "NORMAL": 56,
            "POSITION": 55,
            "TEXCOORD_0": 58
          },
          "indices": 59,
          "material": 5,
          "mode": 4
        }
      ]
    },
    {
      "primitives": [
        {
          "attributes": {
            "COLOR_0": 62,
            "NORMAL": 61,
            "POSITION": 60,
            "TEXCOORD_0": 63
          },
          "indices": 64,
          "material": 5,
          "mode": 4
        }
      ]
    },
    {
      "primitives": [
        {
          "attributes": {
            "COLOR_0": 67,
            "NORMAL": 66,
            "POSITION": 65,
            "TEXCOORD_0": 68
          },
          "indices": 69,
          "material": 5,
          "mode": 4
        }
      ]
    },
    {
      "primitives": [
        {
          "attributes": {
            "COLOR_0": 72,
            "NORMAL": 71,
            "POSITION": 70,
            "TEXCOORD_0": 73
          },
          "indices": 74,
          "material": 6,
          "mode": 4
        }
      ]
    },
    {
      "primitives": [
        {
          "attributes": {
            "COLOR_0": 77,
            "NORMAL": 76,
            "POSITION": 75,
            "TEXCOORD_0": 78
          },
          "indices": 79,
          "material": 6,
          "mode": 4
        }
      ]
    }
  ],
  "nodes": [
    {
      "children": [
        1
      ],
      "name": "RootNode (gltf orientation matrix)",
      "rotation": [
        -0.70710678118654746,
        -0,
        -0,
        0.70710678118654757
      ]
    },
    {
      "children": [
        2
      ],
      "matrix": [
        1,
        0,
        0,
        0,
        0,
        0,
        -1,
        0,
        0,
        1,
        0,
        0,
        0,
        -44.123970031738281,
        -89.015373229980469,
        1
      ],
      "name": "RootNode (model correction matrix)"
    },
    {
      "children": [
        3,
        4,
        5,
        6,
        7,
        8,
        9,
        10,
        11,
        12,
        13,
        14,
        15,
        16,
        17,
        18
      ],
      "name": "Insel.obj.cleaner.materialmerger.gles"
    },
    {
      "mesh": 0,
      "name": ""
    },
    {
      "mesh": 1,
      "name": ""
    },
    {
      "mesh": 2,
      "name": ""
    },
    {
      "mesh": 3,
      "name": ""
    },
    {
      "mesh": 4,
      "name": ""
    },
    {
      "mesh": 5,
      "name": ""
    },
    {
      "mesh": 6,
      "name": ""
    },
    {
      "mesh": 7,
      "name": ""
    },
    {
      "mesh": 8,
      "name": ""
    },
    {
      "mesh": 9,
      "name": ""
    },
    {
      "mesh": 10,
      "name": ""
    },
    {
      "mesh": 11,
      "name": ""
    },
    {
      "mesh": 12,
      "name": ""
    },
    {
      "mesh": 13,
      "name": ""
    },
    {
      "mesh": 14,
      "name": ""
    },
    {
      "mesh": 15,
      "name": ""
    }
  ],
  "samplers": [
    {
      "magFilter": 9729,
      "minFilter": 9987,
      "wrapS": 10497,
      "wrapT": 10497
    }
  ],
  "scene": 0,
  "scenes": [
    {
      "name": "OSG_Scene",
      "nodes": [
        0
      ]
    }
  ],
  "textures": [
    {
      "sampler": 0,
      "source": 0
    },
    {
      "sampler": 0,
      "source": 1
    },
    {
      "sampler": 0,
      "source": 2
    },
    {
      "sampler": 0,
      "source": 3
    },
    {
      "sampler": 0,
      "source": 4
    },
    {
      "sampler": 0,
      "source": 5
    },
    {
      "sampler": 0,
      "source": 6
    }
  ]
}

